<svg width="64" height="64" viewBox="0 0 64 64" fill="none" xmlns="http://www.w3.org/2000/svg">
<path d="M0 32C0 14.3269 14.3269 0 32 0C49.6731 0 64 14.3269 64 32C64 49.6731 49.6731 64 32 64C14.3269 64 0 49.6731 0 32Z" fill="#F3E8FF"/>
<path d="M42.6667 21.3333H21.3334C19.8607 21.3333 18.6667 22.5272 18.6667 23.9999V39.9999C18.6667 41.4727 19.8607 42.6666 21.3334 42.6666H42.6667C44.1395 42.6666 45.3334 41.4727 45.3334 39.9999V23.9999C45.3334 22.5272 44.1395 21.3333 42.6667 21.3333Z" stroke="#9810FA" stroke-width="2.66667" stroke-linecap="round" stroke-linejoin="round"/>
<path d="M45.3334 25.3333L33.3734 32.9333C32.9618 33.1912 32.4858 33.3279 32.0001 33.3279C31.5143 33.3279 31.0384 33.1912 30.6267 32.9333L18.6667 25.3333" stroke="#9810FA" stroke-width="2.66667" stroke-linecap="round" stroke-linejoin="round"/>
</svg>
