<?xml version="1.0" encoding="UTF-8"?>
<svg version="1.1" xmlns="http://www.w3.org/2000/svg" width="196" height="66">
<path d="M0 0 C6.75 1.75 6.75 1.75 9 4 C10.32 4 11.64 4 13 4 C13 4.99 13 5.98 13 7 C13.99 7 14.98 7 16 7 C16.66 5.68 17.32 4.36 18 3 C18.66 3.33 19.32 3.66 20 4 C20 5.32 20 6.64 20 8 C20.598125 7.34 21.19625 6.68 21.8125 6 C24 4 24 4 27 4 C27.31210259 9.95306793 27.51723216 13.95353647 24 19 C24.74891152 22.19007872 24.74891152 22.19007872 27.5625 23.9375 C28.366875 24.618125 29.17125 25.29875 30 26 C30 27.32 30 28.64 30 30 C29.34 30 28.68 30 28 30 C28 30.66 28 31.32 28 32 C28.99 32.33 29.98 32.66 31 33 C31 33.99 31 34.98 31 36 C31.66 36 32.32 36 33 36 C32.93999894 37.6260287 32.8512115 39.25101549 32.75 40.875 C32.70359375 41.77992187 32.6571875 42.68484375 32.609375 43.6171875 C32 46 32 46 30.015625 47.1953125 C29.35046875 47.46085937 28.6853125 47.72640625 28 48 C27.505 48.99 27.505 48.99 27 50 C25.68 50 24.36 50 23 50 C22.67 50.99 22.34 51.98 22 53 C21.01 53 20.02 53 19 53 C19 54.98 19 56.96 19 59 C12.375 59.125 12.375 59.125 9 58 C9 58.66 9 59.32 9 60 C7.35 60 5.7 60 4 60 C4 60.66 4 61.32 4 62 C1.69 62 -0.62 62 -3 62 C-3 61.34 -3 60.68 -3 60 C-4.32 60 -5.64 60 -7 60 C-7 59.34 -7 58.68 -7 58 C-11.455 58.495 -11.455 58.495 -16 59 C-16 57.02 -16 55.04 -16 53 C-17.32 52.67 -18.64 52.34 -20 52 C-20 51.34 -20 50.68 -20 50 C-21.32 50 -22.64 50 -24 50 C-24.33 49.34 -24.66 48.68 -25 48 C-25.66515625 47.73445313 -26.3303125 47.46890625 -27.015625 47.1953125 C-29 46 -29 46 -29.609375 43.6171875 C-29.65578125 42.71226563 -29.7021875 41.80734375 -29.75 40.875 C-29.80671875 39.96492188 -29.8634375 39.05484375 -29.921875 38.1171875 C-29.94765625 37.41851562 -29.9734375 36.71984375 -30 36 C-29.34 36 -28.68 36 -28 36 C-27.18633699 32.94876371 -26.87865672 30.76850744 -27.375 27.625 C-27.25125 26.75875 -27.1275 25.8925 -27 25 C-24.0625 22.8125 -24.0625 22.8125 -21 21 C-20.67 20.34 -20.34 19.68 -20 19 C-20.66 19 -21.32 19 -22 19 C-26.12376682 12.43946188 -26.12376682 12.43946188 -25.8203125 8.91015625 C-25.25 7 -25.25 7 -24 4 C-23.01 4 -22.02 4 -21 4 C-20.01 5.485 -20.01 5.485 -19 7 C-18.34 5.68 -17.68 4.36 -17 3 C-15.68 3.66 -14.36 4.32 -13 5 C-13 5.66 -13 6.32 -13 7 C-12.34 7 -11.68 7 -11 7 C-10.67 5.68 -10.34 4.36 -10 3 C-9.04287109 2.80083984 -9.04287109 2.80083984 -8.06640625 2.59765625 C-7.24011719 2.42105469 -6.41382812 2.24445313 -5.5625 2.0625 C-4.32693359 1.80146484 -4.32693359 1.80146484 -3.06640625 1.53515625 C-1.02338796 1.19247006 -1.02338796 1.19247006 0 0 Z M21 29 C20.67 29.66 20.34 30.32 20 31 C20.66 31 21.32 31 22 31 C21.67 30.34 21.34 29.68 21 29 Z " fill="#AC352A" transform="translate(31,1)"/>
<path d="M0 0 C6.75 1.75 6.75 1.75 9 4 C10.32 4 11.64 4 13 4 C13 4.99 13 5.98 13 7 C13.99 7 14.98 7 16 7 C16.66 5.68 17.32 4.36 18 3 C18.66 3.33 19.32 3.66 20 4 C20 5.32 20 6.64 20 8 C20.598125 7.34 21.19625 6.68 21.8125 6 C24 4 24 4 27 4 C27.31210259 9.95306793 27.51723216 13.95353647 24 19 C24.74891152 22.19007872 24.74891152 22.19007872 27.5625 23.9375 C28.366875 24.618125 29.17125 25.29875 30 26 C30 27.32 30 28.64 30 30 C27.85901807 29.04024948 26.23411952 28.25070022 24.62109375 26.5234375 C22.76748847 24.78149519 21.28076467 24.21426903 18.875 23.4375 C16.7421875 22.74609375 16.7421875 22.74609375 15 22 C14.505 21.01 14.505 21.01 14 20 C10.37 20 6.74 20 3 20 C2.67 20.66 2.34 21.32 2 22 C3.65 22 5.3 22 7 22 C7 22.99 7 23.98 7 25 C3.37 25 -0.26 25 -4 25 C-4 24.01 -4 23.02 -4 22 C-2.68 22 -1.36 22 0 22 C-0.33 21.01 -0.66 20.02 -1 19 C-2.093125 19.020625 -3.18625 19.04125 -4.3125 19.0625 C-8 19 -8 19 -11 18 C-11.33 18.99 -11.66 19.98 -12 21 C-14.42669959 22.68520805 -16.73386964 23.90020112 -19.5 24.9375 C-22.4497025 26.19112356 -24.57686485 27.92302702 -27 30 C-27.375 27.75 -27.375 27.75 -27 25 C-24.0625 22.8125 -24.0625 22.8125 -21 21 C-20.67 20.34 -20.34 19.68 -20 19 C-20.66 19 -21.32 19 -22 19 C-26.12376682 12.43946188 -26.12376682 12.43946188 -25.8203125 8.91015625 C-25.25 7 -25.25 7 -24 4 C-23.01 4 -22.02 4 -21 4 C-20.01 5.485 -20.01 5.485 -19 7 C-18.34 5.68 -17.68 4.36 -17 3 C-15.68 3.66 -14.36 4.32 -13 5 C-13 5.66 -13 6.32 -13 7 C-12.34 7 -11.68 7 -11 7 C-10.67 5.68 -10.34 4.36 -10 3 C-9.04287109 2.80083984 -9.04287109 2.80083984 -8.06640625 2.59765625 C-7.24011719 2.42105469 -6.41382812 2.24445313 -5.5625 2.0625 C-4.32693359 1.80146484 -4.32693359 1.80146484 -3.06640625 1.53515625 C-1.02338796 1.19247006 -1.02338796 1.19247006 0 0 Z " fill="#343554" transform="translate(31,1)"/>
<path d="M0 0 C0.66 0 1.32 0 2 0 C2.66 2.31 3.32 4.62 4 7 C6.64 7 9.28 7 12 7 C12 6.34 12 5.68 12 5 C19.42857143 6 19.42857143 6 23 7 C23 7.99 23 8.98 23 10 C23.66 10 24.32 10 25 10 C24.93999894 11.6260287 24.8512115 13.25101549 24.75 14.875 C24.70359375 15.77992187 24.6571875 16.68484375 24.609375 17.6171875 C24 20 24 20 22.015625 21.1953125 C21.35046875 21.46085937 20.6853125 21.72640625 20 22 C19.67 22.66 19.34 23.32 19 24 C17.68 24 16.36 24 15 24 C14.67 24.99 14.34 25.98 14 27 C13.01 27 12.02 27 11 27 C11 28.98 11 30.96 11 33 C4.67164179 33.35820896 4.67164179 33.35820896 2.125 32 C0.32756466 28.8045594 0.29797286 25.63526893 0 22 C-0.61875 21.896875 -1.2375 21.79375 -1.875 21.6875 C-4 21 -4 21 -6 18 C-6.07905064 15.66800612 -6.08798769 13.33167378 -6 11 C-5.01 11.33 -4.02 11.66 -3 12 C-3 12.66 -3 13.32 -3 14 C-2.01 14 -1.02 14 0 14 C-2.31883213 9.49115974 -5.06451569 7.06093224 -9 4 C-8.67 3.34 -8.34 2.68 -8 2 C-7.01 2 -6.02 2 -5 2 C-4.67 2.66 -4.34 3.32 -4 4 C-3.01 4.33 -2.02 4.66 -1 5 C-0.67 3.35 -0.34 1.7 0 0 Z " fill="#528848" transform="translate(39,27)"/>
<path d="M0 0 C0.66 0.33 1.32 0.66 2 1 C2 1.66 2 2.32 2 3 C6.25731568 3.40749675 6.25731568 3.40749675 9.875 1.5 C10.24625 1.005 10.6175 0.51 11 0 C12.9375 0.6875 12.9375 0.6875 15 2 C15.875 4.4375 15.875 4.4375 16 7 C15.01 8.485 15.01 8.485 14 10 C14.99 10 15.98 10 17 10 C17.33 9.01 17.66 8.02 18 7 C18.66 7 19.32 7 20 7 C20.36567164 13.33830846 20.36567164 13.33830846 18.6875 16.375 C17 18 17 18 14 19 C13.19436362 21.10584438 13.19436362 21.10584438 12.8125 23.5625 C12.544375 25.026875 12.27625 26.49125 12 28 C9.03 28.33 6.06 28.66 3 29 C3 27.02 3 25.04 3 23 C1.68 22.67 0.36 22.34 -1 22 C-1 21.34 -1 20.68 -1 20 C-2.32 20 -3.64 20 -5 20 C-5.33 19.34 -5.66 18.68 -6 18 C-6.66515625 17.73445313 -7.3303125 17.46890625 -8.015625 17.1953125 C-10 16 -10 16 -10.609375 13.6171875 C-10.65578125 12.71226563 -10.7021875 11.80734375 -10.75 10.875 C-10.80671875 9.96492188 -10.8634375 9.05484375 -10.921875 8.1171875 C-10.94765625 7.41851562 -10.9734375 6.71984375 -11 6 C-10.34 6 -9.68 6 -9 6 C-8.67 4.68 -8.34 3.36 -8 2 C-7.05125 1.855625 -6.1025 1.71125 -5.125 1.5625 C-2.1065506 1.17064601 -2.1065506 1.17064601 0 0 Z " fill="#558049" transform="translate(12,31)"/>
<path d="M0 0 C0.90105469 0.02707031 1.80210938 0.05414062 2.73046875 0.08203125 C3.76107422 0.13423828 3.76107422 0.13423828 4.8125 0.1875 C5.1425 1.5075 5.4725 2.8275 5.8125 4.1875 C4.4925 4.1875 3.1725 4.1875 1.8125 4.1875 C1.8125 5.1775 1.8125 6.1675 1.8125 7.1875 C3.070625 7.001875 4.32875 6.81625 5.625 6.625 C8.63994268 6.18017239 9.81718461 6.18906154 12.8125 7.1875 C12.8125 6.1975 12.8125 5.2075 12.8125 4.1875 C11.1625 4.1875 9.5125 4.1875 7.8125 4.1875 C8.1425 3.1975 8.4725 2.2075 8.8125 1.1875 C12.4425 1.1875 16.0725 1.1875 19.8125 1.1875 C20.3075 2.6725 20.3075 2.6725 20.8125 4.1875 C22.78095043 5.06664855 22.78095043 5.06664855 25.125 5.625 C28.95543517 6.78998904 31.39954404 7.83034388 33.8125 11.1875 C33.8125 12.1775 33.8125 13.1675 33.8125 14.1875 C27.9375 13.3125 27.9375 13.3125 26.8125 12.1875 C26.4825 13.1775 26.1525 14.1675 25.8125 15.1875 C23.0625 15.9375 23.0625 15.9375 19.8125 16.1875 C17.4375 14.5 17.4375 14.5 15.8125 12.1875 C15.8125 10.8675 15.8125 9.5475 15.8125 8.1875 C15.1525 8.5175 14.4925 8.8475 13.8125 9.1875 C13.16036708 11.21213255 13.16036708 11.21213255 12.8125 13.1875 C11.4925 12.8575 10.1725 12.5275 8.8125 12.1875 C8.8125 11.5275 8.8125 10.8675 8.8125 10.1875 C5.69464887 10.83394661 5.69464887 10.83394661 4.8125 13.1875 C3.8225 13.1875 2.8325 13.1875 1.8125 13.1875 C1.709375 12.589375 1.60625 11.99125 1.5 11.375 C0.69029333 8.7986606 -0.04958991 7.82209045 -2.1875 6.1875 C-5.3828213 6.14193392 -8.26587367 6.90857797 -11.1875 8.1875 C-12.40619929 10.69197516 -12.40619929 10.69197516 -13.1875 13.1875 C-16.3125 14 -16.3125 14 -19.1875 14.1875 C-19.1875 10.1875 -19.1875 10.1875 -17.625 8.125 C-14.68634453 5.78914565 -11.63963578 4.63112042 -8.1875 3.1875 C-7.72859375 2.66671875 -7.2696875 2.1459375 -6.796875 1.609375 C-4.53132038 -0.39223151 -2.96780316 -0.11562869 0 0 Z " fill="#D18029" transform="translate(25.1875,18.8125)"/>
<path d="M0 0 C1.32 0.66 2.64 1.32 4 2 C4 2.66 4 3.32 4 4 C4.928125 4.0928125 4.928125 4.0928125 5.875 4.1875 C8 5 8 5 9.125 7.5 C9.41375 8.325 9.7025 9.15 10 10 C10.66 10.33 11.32 10.66 12 11 C11.67 9.35 11.34 7.7 11 6 C11.66 5.67 12.32 5.34 13 5 C14.32 5.99 15.64 6.98 17 8 C17.5775 7.690625 18.155 7.38125 18.75 7.0625 C20.84294184 6.07416636 22.74535275 5.4831387 25 5 C25.042721 6.66611905 25.04063832 8.33382885 25 10 C24 11 24 11 21.49609375 11.09765625 C19.98208984 11.08025391 19.98208984 11.08025391 18.4375 11.0625 C17.42558594 11.05347656 16.41367187 11.04445313 15.37109375 11.03515625 C14.19740234 11.01775391 14.19740234 11.01775391 13 11 C13.66 12.32 14.32 13.64 15 15 C9.375 16.125 9.375 16.125 6 15 C5.67 15.99 5.34 16.98 5 18 C2.57330041 19.68520805 0.26613036 20.90020112 -2.5 21.9375 C-5.4497025 23.19112356 -7.57686485 24.92302702 -10 27 C-10.375 24.75 -10.375 24.75 -10 22 C-7.0625 19.8125 -7.0625 19.8125 -4 18 C-3.67 17.34 -3.34 16.68 -3 16 C-3.66 16 -4.32 16 -5 16 C-9.12376682 9.43946188 -9.12376682 9.43946188 -8.8203125 5.91015625 C-8.25 4 -8.25 4 -7 1 C-6.01 1 -5.02 1 -4 1 C-3.34 1.99 -2.68 2.98 -2 4 C-1.34 2.68 -0.68 1.36 0 0 Z " fill="#252E5D" transform="translate(14,4)"/>
<path d="M0 0 C6.75 1.75 6.75 1.75 9 4 C10.32 4 11.64 4 13 4 C12.39009109 7.55780196 11.4216319 10.6828589 10 14 C9.01 13.67 8.02 13.34 7 13 C7.33 11.35 7.66 9.7 8 8 C6.02 9.32 4.04 10.64 2 12 C1.401875 11.690625 0.80375 11.38125 0.1875 11.0625 C-2.08956772 9.89790296 -2.08956772 9.89790296 -5 9 C-5 10.65 -5 12.3 -5 14 C-8 13 -8 13 -9.75 10.1875 C-11.05483179 6.86017895 -11.02866653 6.20415723 -10 3 C-9.04287109 2.80083984 -9.04287109 2.80083984 -8.06640625 2.59765625 C-7.24011719 2.42105469 -6.41382813 2.24445313 -5.5625 2.0625 C-4.73878906 1.88847656 -3.91507813 1.71445312 -3.06640625 1.53515625 C-1.02338796 1.19247006 -1.02338796 1.19247006 0 0 Z " fill="#32315D" transform="translate(31,1)"/>
<path d="M0 0 C1.32 0 2.64 0 4 0 C4 0.99 4 1.98 4 3 C4.66 3 5.32 3 6 3 C5.93999894 4.6260287 5.8512115 6.25101549 5.75 7.875 C5.68039063 9.23238281 5.68039063 9.23238281 5.609375 10.6171875 C5 13 5 13 3.015625 14.1953125 C2.35046875 14.46085937 1.6853125 14.72640625 1 15 C0.67 15.66 0.34 16.32 0 17 C-6.50153374 16.51840491 -6.50153374 16.51840491 -8.5625 14.375 C-9.21251332 10.84635627 -8.22957108 8.31984193 -7 5 C-5 3 -5 3 -2.9375 2.5 C-2.298125 2.335 -1.65875 2.17 -1 2 C-0.67 1.34 -0.34 0.68 0 0 Z " fill="#DEA31E" transform="translate(58,34)"/>
<path d="M0 0 C0.66 0.33 1.32 0.66 2 1 C2 1.66 2 2.32 2 3 C6.25731568 3.40749675 6.25731568 3.40749675 9.875 1.5 C10.24625 1.005 10.6175 0.51 11 0 C12.9375 0.6875 12.9375 0.6875 15 2 C15.875 4.4375 15.875 4.4375 16 7 C15.01 8.485 15.01 8.485 14 10 C15.32 10.33 16.64 10.66 18 11 C18 11.99 18 12.98 18 14 C16.35 14 14.7 14 13 14 C12.34 12.68 11.68 11.36 11 10 C7.88667752 10.66868314 7.88667752 10.66868314 6.8125 13.0625 C6.544375 13.701875 6.27625 14.34125 6 15 C5.01 14.67 4.02 14.34 3 14 C2.54625 12.865625 2.0925 11.73125 1.625 10.5625 C0.36464614 6.84564415 0.36464614 6.84564415 -2.6875 5.5625 C-3.8321875 5.2840625 -3.8321875 5.2840625 -5 5 C-5 4.01 -5 3.02 -5 2 C-2.625 0.9375 -2.625 0.9375 0 0 Z " fill="#427745" transform="translate(12,31)"/>
<path d="M0 0 C1.875 0.5625 1.875 0.5625 4 2 C5.44239217 5.89445887 6 8.83522036 6 13 C5.34 13 4.68 13 4 13 C3.67 13.99 3.34 14.98 3 16 C0.25 16.75 0.25 16.75 -3 17 C-6.14049765 14.9063349 -6.97133537 13.07166158 -8.375 9.5625 C-9.03455993 5.80300839 -8.79642061 4.29343778 -7 1 C-6.01 1 -5.02 1 -4 1 C-3.34 1.99 -2.68 2.98 -2 4 C-1.34 2.68 -0.68 1.36 0 0 Z " fill="#1C88AF" transform="translate(14,4)"/>
<path d="M0 0 C3 1 3 1 4 3 C4.804375 3.309375 5.60875 3.61875 6.4375 3.9375 C9 5 9 5 11 8 C11.4375 11.5 11.4375 11.5 11 15 C8.15739513 17.38164192 6.71594733 18 3 18 C2.67 17.34 2.34 16.68 2 16 C1.33484375 15.73445313 0.6696875 15.46890625 -0.015625 15.1953125 C-2 14 -2 14 -2.609375 11.6171875 C-2.65578125 10.71226563 -2.7021875 9.80734375 -2.75 8.875 C-2.80671875 7.96492188 -2.8634375 7.05484375 -2.921875 6.1171875 C-2.94765625 5.41851562 -2.9734375 4.71984375 -3 4 C-2.34 4 -1.68 4 -1 4 C-0.67 2.68 -0.34 1.36 0 0 Z " fill="#E49816" transform="translate(4,33)"/>
<path d="M0 0 C0.66 0 1.32 0 2 0 C2.66 2.31 3.32 4.62 4 7 C6.64 7 9.28 7 12 7 C12 6.34 12 5.68 12 5 C14.31 5.33 16.62 5.66 19 6 C18.8125 7.875 18.8125 7.875 18 10 C17.195625 10.268125 16.39125 10.53625 15.5625 10.8125 C14.716875 11.204375 13.87125 11.59625 13 12 C11.62032476 15.53514293 11.62032476 15.53514293 11 19 C8 19 8 19 5.375 16.4375 C2.76354282 13.15161244 2.251671 10.1945167 2 6 C1.01 6.99 0.02 7.98 -1 9 C-4.91402949 7.73058503 -6.79072873 6.48832306 -9 3 C-7.68 2.67 -6.36 2.34 -5 2 C-4.67 2.66 -4.34 3.32 -4 4 C-3.01 4.33 -2.02 4.66 -1 5 C-0.67 3.35 -0.34 1.7 0 0 Z " fill="#3D7859" transform="translate(39,27)"/>
<path d="M0 0 C0.66 0.33 1.32 0.66 2 1 C1.86722656 1.58007812 1.73445313 2.16015625 1.59765625 2.7578125 C0.60295999 7.15770982 -0.31368332 11.53894158 -1 16 C-0.54625 15.05125 -0.0925 14.1025 0.375 13.125 C2 10 2 10 4 8 C6.52557477 8.24441046 7.7852602 8.82360659 9.75 10.4375 C11 12 11 12 11 14 C8.875 16.6875 8.875 16.6875 6 19 C2.9375 18.75 2.9375 18.75 0 18 C-2.18703385 18.37907282 -2.18703385 18.37907282 -4 19 C-6.15634036 19 -7.92446352 18.5534764 -10 18 C-9.125 10.25 -9.125 10.25 -8 8 C-7.34 8 -6.68 8 -6 8 C-6 10.64 -6 13.28 -6 16 C-5.73445313 15.01257812 -5.46890625 14.02515625 -5.1953125 13.0078125 C-4.83889247 11.71344502 -4.48210234 10.41917941 -4.125 9.125 C-3.95097656 8.47402344 -3.77695313 7.82304687 -3.59765625 7.15234375 C-2.2265625 2.2265625 -2.2265625 2.2265625 0 0 Z M-1 5 C0 7 0 7 0 7 Z M6 9 C5.67 9.99 5.34 10.98 5 12 C5.99 12.495 5.99 12.495 7 13 C6.67 11.68 6.34 10.36 6 9 Z M3 12 C3 13.98 3 15.96 3 18 C3.99 17.67 4.98 17.34 6 17 C6.33 16.01 6.66 15.02 7 14 C5.68 13.34 4.36 12.68 3 12 Z " fill="#EDE8CE" transform="translate(92,22)"/>
<path d="M0 0 C0.99 0.33 1.98 0.66 3 1 C2.34 4.3 1.68 7.6 1 11 C0.21753906 11.12117188 -0.56492187 11.24234375 -1.37109375 11.3671875 C-2.38300781 11.53476562 -3.39492188 11.70234375 -4.4375 11.875 C-5.44683594 12.03742187 -6.45617187 12.19984375 -7.49609375 12.3671875 C-8.32238281 12.57601563 -9.14867187 12.78484375 -10 13 C-10.33 13.66 -10.66 14.32 -11 15 C-9.35 15 -7.7 15 -6 15 C-6 15.99 -6 16.98 -6 18 C-9.63 18 -13.26 18 -17 18 C-17 17.01 -17 16.02 -17 15 C-15.68 15 -14.36 15 -13 15 C-13.474375 14.236875 -13.94875 13.47375 -14.4375 12.6875 C-16 10 -16 10 -17 7 C-12.38 7 -7.76 7 -3 7 C-2.34 5.02 -1.68 3.04 -1 1 C-0.67 0.67 -0.34 0.34 0 0 Z " fill="#547E4B" transform="translate(44,8)"/>
<path d="M0 0 C0.90105469 0.02707031 1.80210938 0.05414062 2.73046875 0.08203125 C3.76107422 0.13423828 3.76107422 0.13423828 4.8125 0.1875 C5.1425 1.5075 5.4725 2.8275 5.8125 4.1875 C4.4925 4.1875 3.1725 4.1875 1.8125 4.1875 C1.8125 5.5075 1.8125 6.8275 1.8125 8.1875 C2.8025 8.5175 3.7925 8.8475 4.8125 9.1875 C4.8125 10.5075 4.8125 11.8275 4.8125 13.1875 C3.8225 13.1875 2.8325 13.1875 1.8125 13.1875 C1.709375 12.589375 1.60625 11.99125 1.5 11.375 C0.69029333 8.7986606 -0.04958991 7.82209045 -2.1875 6.1875 C-5.3828213 6.14193392 -8.26587367 6.90857797 -11.1875 8.1875 C-12.40619929 10.69197516 -12.40619929 10.69197516 -13.1875 13.1875 C-16.3125 14 -16.3125 14 -19.1875 14.1875 C-19.1875 10.1875 -19.1875 10.1875 -17.625 8.125 C-14.68634453 5.78914565 -11.63963578 4.63112042 -8.1875 3.1875 C-7.72859375 2.66671875 -7.2696875 2.1459375 -6.796875 1.609375 C-4.53132038 -0.39223151 -2.96780316 -0.11562869 0 0 Z " fill="#C36824" transform="translate(25.1875,18.8125)"/>
<path d="M0 0 C0.66 0 1.32 0 2 0 C2.18175781 0.54269531 2.36351562 1.08539063 2.55078125 1.64453125 C2.92783203 2.71767578 2.92783203 2.71767578 3.3125 3.8125 C3.67794922 4.87404297 3.67794922 4.87404297 4.05078125 5.95703125 C4.88982443 8.07699188 4.88982443 8.07699188 6.60546875 9.57421875 C8 11 8 11 8 14 C6.35 14.33 4.7 14.66 3 15 C3 15.66 3 16.32 3 17 C2.01 17.33 1.02 17.66 0 18 C0 17.34 0 16.68 0 16 C-0.928125 15.8453125 -0.928125 15.8453125 -1.875 15.6875 C-4 15 -4 15 -6 12 C-6.07905064 9.66800612 -6.08798769 7.33167378 -6 5 C-5.01 5.33 -4.02 5.66 -3 6 C-3 6.66 -3 7.32 -3 8 C-2.01 8 -1.02 8 0 8 C-0.556875 6.8553125 -0.556875 6.8553125 -1.125 5.6875 C-1.41375 4.800625 -1.7025 3.91375 -2 3 C-1.34 2.01 -0.68 1.02 0 0 Z " fill="#527B49" transform="translate(39,33)"/>
<path d="M0 0 C2.69082872 0.17635452 5.32851446 0.61835921 8 1 C8 1.66 8 2.32 8 3 C8.66 3 9.32 3 10 3 C10 4.65 10 6.3 10 8 C9.34 8 8.68 8 8 8 C8.33 9.98 8.66 11.96 9 14 C6.69 14 4.38 14 2 14 C2 13.34 2 12.68 2 12 C0.68 12 -0.64 12 -2 12 C-1.85962479 10.18706911 -1.71255111 8.3746557 -1.5625 6.5625 C-1.48128906 5.55316406 -1.40007813 4.54382812 -1.31640625 3.50390625 C-1 1 -1 1 0 0 Z " fill="#D18C21" transform="translate(26,49)"/>
<path d="M0 0 C1.65 0.33 3.3 0.66 5 1 C4.125 8.75 4.125 8.75 3 11 C3.99 10.67 4.98 10.34 6 10 C6.80212628 8.12612784 6.80212628 8.12612784 7.1875 5.9375 C7.42533203 4.83728516 7.42533203 4.83728516 7.66796875 3.71484375 C7.77753906 3.14894531 7.88710937 2.58304688 8 2 C8.66 2 9.32 2 10 2 C9.9278125 2.61488281 9.855625 3.22976562 9.78125 3.86328125 C9.6884375 4.67152344 9.595625 5.47976562 9.5 6.3125 C9.4071875 7.11300781 9.314375 7.91351563 9.21875 8.73828125 C8.95186537 11.11896555 8.95186537 11.11896555 9 14 C8.68330179 16.33564933 8.35179197 18.6693782 8 21 C8.66 21.33 9.32 21.66 10 22 C8.68 21.67 7.36 21.34 6 21 C5.896875 19.88625 5.79375 18.7725 5.6875 17.625 C5.460625 16.42875 5.23375 15.2325 5 14 C4.01 13.34 3.02 12.68 2 12 C1.67 13.65 1.34 15.3 1 17 C-0.32 17.33 -1.64 17.66 -3 18 C-2.95875 17.0925 -2.9175 16.185 -2.875 15.25 C-2.99531556 12.1217954 -3.3914708 10.61385994 -5 8 C-2.525 8.99 -2.525 8.99 0 10 C0.99 7.03 1.98 4.06 3 1 C2.34 1 1.68 1 1 1 C0.67 2.65 0.34 4.3 0 6 C-0.66 5.67 -1.32 5.34 -2 5 C-1.34 3.35 -0.68 1.7 0 0 Z " fill="#EDE7CC" transform="translate(72,21)"/>
<path d="M0 0 C1.56454159 4.02014661 0.46223974 7.69925681 -0.4375 11.75 C-0.58509766 12.44738281 -0.73269531 13.14476562 -0.88476562 13.86328125 C-1.24868033 15.5772021 -1.62329068 17.28884581 -2 19 C-2.99 18.67 -3.98 18.34 -5 18 C-6.04111729 15.05480723 -6.43536684 12.08376572 -7 9 C-8.65 12.3 -10.3 15.6 -12 19 C-12.66 18.34 -13.32 17.68 -14 17 C-13.73445313 16.41992188 -13.46890625 15.83984375 -13.1953125 15.2421875 C-11.22438666 10.88313255 -9.40950748 6.58089932 -8 2 C-8.99 2.495 -8.99 2.495 -10 3 C-10.65213292 5.02463255 -10.65213292 5.02463255 -11 7 C-11.66 7 -12.32 7 -13 7 C-13.042721 5.33388095 -13.04063832 3.66617115 -13 2 C-12 1 -12 1 -8.9375 0.9375 C-7.4834375 0.9684375 -7.4834375 0.9684375 -6 1 C-5.34 3.31 -4.68 5.62 -4 8 C-3.67 8 -3.34 8 -3 8 C-2.690625 6.865625 -2.38125 5.73125 -2.0625 4.5625 C-1 1 -1 1 0 0 Z " fill="#ECE6CB" transform="translate(123,23)"/>
<path d="M0 0 C0 0.66 0 1.32 0 2 C0.99 2.33 1.98 2.66 3 3 C3 4.32 3 5.64 3 7 C4.65 6.67 6.3 6.34 8 6 C7.34 7.32 6.68 8.64 6 10 C5.01 10 4.02 10 3 10 C2.34 9.01 1.68 8.02 1 7 C0.401875 7.309375 -0.19625 7.61875 -0.8125 7.9375 C-3.29869342 9.14507966 -5.26734035 10.04440361 -8.0625 9.875 C-10 9 -10 9 -11.375 6.625 C-11.58125 5.75875 -11.7875 4.8925 -12 4 C-9.07491676 -0.38762486 -5.0380608 -1.6793536 0 0 Z " fill="#C16726" transform="translate(24,25)"/>
<path d="M0 0 C0.66 0 1.32 0 2 0 C2 2.64 2 5.28 2 8 C2.99 5.69 3.98 3.38 5 1 C6.65 1 8.3 1 10 1 C10.66 2.32 11.32 3.64 12 5 C12.33 3.68 12.66 2.36 13 1 C13.66 1 14.32 1 15 1 C16.46726798 4.81489674 15.43336419 7.29011622 14 11 C13.34 11 12.68 11 12 11 C11.67 10.01 11.34 9.02 11 8 C10.01 9.32 9.02 10.64 8 12 C7.2575 11.649375 6.515 11.29875 5.75 10.9375 C2.8677274 9.95490707 1.78823655 9.9673198 -1 11 C-2.60080151 6.99799622 -1.29279692 3.95443764 0 0 Z M8 2 C9 5 9 5 9 5 Z M6 4 C6 5.98 6 7.96 6 10 C6.66 10 7.32 10 8 10 C8.33 9.01 8.66 8.02 9 7 C8.01 6.01 7.02 5.02 6 4 Z " fill="#EFEAD0" transform="translate(142,30)"/>
<path d="M0 0 C3.3 0.66 6.6 1.32 10 2 C11 7 11 7 10 10 C7.25 10.75 7.25 10.75 4 11 C1.19586012 9.02952333 0.19986813 7.6457278 -0.8125 4.375 C-1 2 -1 2 0 0 Z " fill="#903B29" transform="translate(41,24)"/>
<path d="M0 0 C0 2.31 0 4.62 0 7 C0.99 4.69 1.98 2.38 3 0 C4.65 0 6.3 0 8 0 C8 1.32 8 2.64 8 4 C7.34 4 6.68 4 6 4 C5.67 3.34 5.34 2.68 5 2 C4.67 4.31 4.34 6.62 4 9 C5.32 8.67 6.64 8.34 8 8 C7.67 8.66 7.34 9.32 7 10 C3.66666667 10 0.33333333 10 -3 10 C-3.98120464 6.94736336 -3.98120464 5.05263664 -3 2 C-3.66 1.67 -4.32 1.34 -5 1 C-5 3.97 -5 6.94 -5 10 C-5.99 10 -6.98 10 -8 10 C-8.36248013 2.62957075 -8.36248013 2.62957075 -6.8125 -0.0625 C-4.26271335 -1.38135516 -2.68253902 -0.7975116 0 0 Z " fill="#EEE8CE" transform="translate(132,31)"/>
<path d="M0 0 C0.99 0 1.98 0 3 0 C3.33 2.31 3.66 4.62 4 7 C4.99 4.69 5.98 2.38 7 0 C8.98 0 10.96 0 13 0 C13 3.3 13 6.6 13 10 C12.01 10 11.02 10 10 10 C9.34 10.165 8.68 10.33 8 10.5 C6 11 6 11 3 11 C2.01 10.34 1.02 9.68 0 9 C0.33 6.69 0.66 4.38 1 2 C0.34 1.67 -0.32 1.34 -1 1 C-0.67 0.67 -0.34 0.34 0 0 Z M8 1 C7.67 3.64 7.34 6.28 7 9 C9.89932357 6.60490662 10.50168276 4.68754757 11 1 C10.01 1 9.02 1 8 1 Z " fill="#EDE7CC" transform="translate(159,31)"/>
<path d="M0 0 C0.99 0.66 1.98 1.32 3 2 C3 2.99 3 3.98 3 5 C1.35 4.67 -0.3 4.34 -2 4 C-2.33 5.32 -2.66 6.64 -3 8 C-3.99 7.67 -4.98 7.34 -6 7 C-5.67 7.99 -5.34 8.98 -5 10 C-5.33 10.99 -5.66 11.98 -6 13 C-5.34 13 -4.68 13 -4 13 C-4 15.31 -4 17.62 -4 20 C-4.99 20 -5.98 20 -7 20 C-7 18.02 -7 16.04 -7 14 C-7.9590625 13.8453125 -7.9590625 13.8453125 -8.9375 13.6875 C-9.618125 13.460625 -10.29875 13.23375 -11 13 C-11.33 12.01 -11.66 11.02 -12 10 C-11.38125 9.731875 -10.7625 9.46375 -10.125 9.1875 C-7.7004767 8.04443152 -7.7004767 8.04443152 -6 5 C-5.34 5.33 -4.68 5.66 -4 6 C-3.71125 5.195625 -3.4225 4.39125 -3.125 3.5625 C-2 1 -2 1 0 0 Z " fill="#547942" transform="translate(22,40)"/>
<path d="M0 0 C2.475 0.99 2.475 0.99 5 2 C3.68 4.31 2.36 6.62 1 9 C-2.375 8.75 -2.375 8.75 -6 8 C-7.4375 5.9375 -7.4375 5.9375 -8 4 C-7.34 3.01 -6.68 2.02 -6 1 C-3.4375 0.875 -3.4375 0.875 -1 1 C-0.67 0.67 -0.34 0.34 0 0 Z " fill="#E7A815" transform="translate(57,42)"/>
<path d="M0 0 C0 2.64 0 5.28 0 8 C-5.75 11 -5.75 11 -8 11 C-8 11.66 -8 12.32 -8 13 C-8.66 13 -9.32 13 -10 13 C-9.02953914 7.17723482 -6.92260035 0 0 0 Z " fill="#1F92B3" transform="translate(58,5)"/>
<path d="M0 0 C0.99 0 1.98 0 3 0 C3 0.66 3 1.32 3 2 C4.98 2 6.96 2 9 2 C9.33 3.98 9.66 5.96 10 8 C7.69 8 5.38 8 3 8 C3 7.34 3 6.68 3 6 C1.68 6 0.36 6 -1 6 C-1.042721 4.33388095 -1.04063832 2.66617115 -1 1 C-0.67 0.67 -0.34 0.34 0 0 Z " fill="#DB7716" transform="translate(25,55)"/>
<path d="M0 0 C0.99 0.33 1.98 0.66 3 1 C2.34 4.3 1.68 7.6 1 11 C-1.8125 11.625 -1.8125 11.625 -5 12 C-5.99 11.34 -6.98 10.68 -8 10 C-7.34 9.01 -6.68 8.02 -6 7 C-5.01 7 -4.02 7 -3 7 C-2.690625 6.030625 -2.38125 5.06125 -2.0625 4.0625 C-1 1 -1 1 0 0 Z " fill="#233364" transform="translate(44,8)"/>
<path d="M0 0 C0.7425 0.53625 1.485 1.0725 2.25 1.625 C3.1575 2.07875 4.065 2.5325 5 3 C7.11629529 2.3169667 7.11629529 2.3169667 9 1 C10.3242287 0.63215869 11.65613912 0.28797019 13 0 C13.042721 1.66611905 13.04063832 3.33382885 13 5 C12 6 12 6 9.27734375 6.09765625 C7.62412109 6.08025391 7.62412109 6.08025391 5.9375 6.0625 C4.28041016 6.04896484 4.28041016 6.04896484 2.58984375 6.03515625 C1.73519531 6.02355469 0.88054688 6.01195312 0 6 C-0.38218767 4.34385343 -0.71395102 2.67542976 -1 1 C-0.67 0.67 -0.34 0.34 0 0 Z " fill="#21748B" transform="translate(26,9)"/>
<path d="M0 0 C0.66 0 1.32 0 2 0 C2.25287193 6.06892629 1.69832609 11.16200408 0 17 C0.66 17.33 1.32 17.66 2 18 C-1.75 19.125 -1.75 19.125 -4 18 C-3.71710528 15.74888027 -3.42335307 13.49912314 -3.125 11.25 C-2.96257812 9.99703125 -2.80015625 8.7440625 -2.6328125 7.453125 C-2.0941645 4.51383592 -1.51991159 2.52892853 0 0 Z M0 5 C1 8 1 8 1 8 Z " fill="#EBE6CC" transform="translate(176,22)"/>
<path d="M0 0 C1.5 1.375 1.5 1.375 3 3 C3 3.66 3 4.32 3 5 C3.4125 4.484375 3.825 3.96875 4.25 3.4375 C4.8275 2.963125 5.405 2.48875 6 2 C8.1875 2.3125 8.1875 2.3125 10 3 C10 4.98 10 6.96 10 9 C3.6217765 9.36103152 3.6217765 9.36103152 1.0625 7.875 C-0.44484863 5.214973 -0.19986253 2.99793795 0 0 Z " fill="#4F7944" transform="translate(40,51)"/>
<path d="M0 0 C1.875 0.5625 1.875 0.5625 4 2 C5.44239217 5.89445887 6 8.83522036 6 13 C2.16674584 11.54600704 0.71720395 9.6919885 -1 6 C-1.25 3.25 -1.25 3.25 -1 1 C-0.67 0.67 -0.34 0.34 0 0 Z " fill="#D24D2E" transform="translate(14,4)"/>
<path d="M0 0 C0.99 0 1.98 0 3 0 C3.625 2.3125 3.625 2.3125 4 5 C3.01 6.485 3.01 6.485 2 8 C3.32 8.33 4.64 8.66 6 9 C6 9.99 6 10.98 6 12 C4.35 12 2.7 12 1 12 C0.44191911 10.56879256 -0.09596462 9.12969645 -0.625 7.6875 C-0.92664063 6.88699219 -1.22828125 6.08648437 -1.5390625 5.26171875 C-1.69117187 4.51535156 -1.84328125 3.76898438 -2 3 C-1.34 2.01 -0.68 1.02 0 0 Z " fill="#3E3658" transform="translate(24,33)"/>
<path d="M0 0 C3.73884332 2.65654657 5.64978174 4.58110387 7 9 C6.01 9 5.02 9 4 9 C3.67 8.34 3.34 7.68 3 7 C1.35 7 -0.3 7 -2 7 C-2.33 7.66 -2.66 8.32 -3 9 C-3.99 9 -4.98 9 -6 9 C-4.83857315 4.64464931 -3.92300495 2.35380297 0 0 Z " fill="#D09130" transform="translate(32,32)"/>
<path d="M0 0 C0.66 0.33 1.32 0.66 2 1 C2.32644414 5.16216275 2.40650982 7.36313462 0.125 10.9375 C-2 13 -2 13 -4 13 C-3.55966813 7.80408388 -3.11696661 4.33664919 0 0 Z " fill="#A8412D" transform="translate(49,4)"/>
<path d="M0 0 C-1 3 -1 3 -4 5 C-6.32387947 5.39387788 -8.65793749 5.73486085 -11 6 C-11.33 5.34 -11.66 4.68 -12 4 C-9.07491676 -0.38762486 -5.0380608 -1.6793536 0 0 Z " fill="#933227" transform="translate(24,25)"/>
<path d="M0 0 C0.763125 0.309375 1.52625 0.61875 2.3125 0.9375 C4.18789677 1.67893593 6.08684652 2.36228217 8 3 C8 3.66 8 4.32 8 5 C8.66 5 9.32 5 10 5 C10 5.66 10 6.32 10 7 C7.25 7.75 7.25 7.75 4 8 C1.625 6.3125 1.625 6.3125 0 4 C0 2.68 0 1.36 0 0 Z " fill="#D19A2D" transform="translate(7,13)"/>
<path d="M0 0 C0.66 0 1.32 0 2 0 C2.36923077 5.53846154 2.36923077 5.53846154 0.5 7.875 C0.005 8.24625 -0.49 8.6175 -1 9 C-4.91402949 7.73058503 -6.79072873 6.48832306 -9 3 C-7.68 2.67 -6.36 2.34 -5 2 C-4.67 2.66 -4.34 3.32 -4 4 C-3.01 4.33 -2.02 4.66 -1 5 C-0.67 3.35 -0.34 1.7 0 0 Z " fill="#3A8596" transform="translate(39,27)"/>
<path d="M0 0 C-0.66 2.31 -1.32 4.62 -2 7 C-3.98 7.33 -5.96 7.66 -8 8 C-8 4 -8 4 -6.25 1.75 C-4 0 -4 0 0 0 Z " fill="#B36038" transform="translate(14,25)"/>
<path d="M0 0 C-1.75 5.75 -1.75 5.75 -4 8 C-6.625 8.125 -6.625 8.125 -9 8 C-9 5 -9 5 -7.6875 3.4375 C-5.001828 1.14970534 -3.60140796 0 0 0 Z " fill="#CD972D" transform="translate(58,13)"/>
<path d="M0 0 C0.66 0 1.32 0 2 0 C2.18175781 0.54269531 2.36351562 1.08539063 2.55078125 1.64453125 C2.80214844 2.35996094 3.05351563 3.07539062 3.3125 3.8125 C3.55613281 4.52019531 3.79976562 5.22789063 4.05078125 5.95703125 C4.88982443 8.07699188 4.88982443 8.07699188 6.60546875 9.57421875 C8 11 8 11 8 14 C7.34 14 6.68 14 6 14 C6 13.01 6 12.02 6 11 C4.35 11.33 2.7 11.66 1 12 C1.04125 10.9275 1.0825 9.855 1.125 8.75 C1.0114175 5.34252515 0.78726636 3.79260369 -1 1 C-0.67 0.67 -0.34 0.34 0 0 Z " fill="#B6602E" transform="translate(39,33)"/>
<path d="M0 0 C1.4835001 0.42257276 2.96176424 0.86356322 4.4375 1.3125 C5.67306641 1.67794922 5.67306641 1.67794922 6.93359375 2.05078125 C7.61550781 2.36402344 8.29742187 2.67726563 9 3 C9.33 3.99 9.66 4.98 10 6 C7.25 6.75 7.25 6.75 4 7 C1.625 5.25 1.625 5.25 0 3 C0 2.01 0 1.02 0 0 Z " fill="#CB722B" transform="translate(41,28)"/>
<path d="M0 0 C1.32 0 2.64 0 4 0 C4.33 1.98 4.66 3.96 5 6 C4.01 6 3.02 6 2 6 C2 6.99 2 7.98 2 9 C3.65 8.67 5.3 8.34 7 8 C7 8.99 7 9.98 7 11 C5.35 11 3.7 11 2 11 C0.57741188 7.17679443 -0.24042276 4.08718695 0 0 Z " fill="#DA8F22" transform="translate(1,37)"/>
<path d="M0 0 C0.99 0.495 0.99 0.495 2 1 C2 1.66 2 2.32 2 3 C3.65 3.33 5.3 3.66 7 4 C6.34 6.64 5.68 9.28 5 12 C3.0625 11.0625 3.0625 11.0625 1 9 C0.33825175 6.0141919 0.12794052 3.05138131 0 0 Z " fill="#65834A" transform="translate(41,31)"/>
<path d="M0 0 C0.99 0.33 1.98 0.66 3 1 C2.2884375 1.8353125 2.2884375 1.8353125 1.5625 2.6875 C-0.12395996 5.18346074 -0.58953107 7.0446237 -1 10 C-1.99 10.33 -2.98 10.66 -4 11 C-4.66 8.36 -5.32 5.72 -6 3 C-4.68 2.67 -3.36 2.34 -2 2 C-1.34 1.34 -0.68 0.68 0 0 Z " fill="#587A4C" transform="translate(23,31)"/>
<path d="M0 0 C1.98 0.495 1.98 0.495 4 1 C4.77842938 4.40562852 5.09978121 7.50765756 5 11 C2 10 2 10 0.25 7.1875 C-0.98589446 4.03596914 -1.28222189 3.03070628 0 0 Z " fill="#D88E30" transform="translate(21,4)"/>
<path d="M0 0 C0.99 0.33 1.98 0.66 3 1 C2.39009109 4.55780196 1.4216319 7.6828589 0 11 C-0.99 10.67 -1.98 10.34 -3 10 C-2.25 2.25 -2.25 2.25 0 0 Z " fill="#DA8F29" transform="translate(41,4)"/>
<path d="M0 0 C0.33 0 0.66 0 1 0 C1.09796875 0.61488281 1.1959375 1.22976562 1.296875 1.86328125 C2.13291046 6.99409305 2.13291046 6.99409305 5.125 11.0625 C5.74375 11.371875 6.3625 11.68125 7 12 C2.545 12.495 2.545 12.495 -2 13 C-2 9.72782865 -1.73516599 7.37445544 -1 4.25 C-0.814375 3.45078125 -0.62875 2.6515625 -0.4375 1.828125 C-0.2209375 0.92320313 -0.2209375 0.92320313 0 0 Z " fill="#943F2F" transform="translate(32,38)"/>
<path d="M0 0 C1.9375 0.125 1.9375 0.125 4 1 C5.25 3.5625 5.25 3.5625 6 6 C4.0085944 6.38133299 2.00720923 6.71325582 0 7 C-1 6 -1 6 -1.125 3.5 C-1 1 -1 1 0 0 Z " fill="#9D3725" transform="translate(9,37)"/>
<path d="M0 0 C3.78520613 0.54074373 5.59177555 2.07572746 8 5 C8 5.99 8 6.98 8 8 C5.03 7.505 5.03 7.505 2 7 C1.34 4.69 0.68 2.38 0 0 Z " fill="#BF5C2C" transform="translate(51,25)"/>
<path d="M0 0 C1.32 0.66 2.64 1.32 4 2 C3.67 3.65 3.34 5.3 3 7 C1.35 7 -0.3 7 -2 7 C-2.33 6.01 -2.66 5.02 -3 4 C-1.5625 1.8125 -1.5625 1.8125 0 0 Z " fill="#973326" transform="translate(53,37)"/>
<path d="M0 0 C-0.25 1.875 -0.25 1.875 -1 4 C-3.0625 5.25 -3.0625 5.25 -5 6 C-5.66 5.34 -6.32 4.68 -7 4 C-7 2.68 -7 1.36 -7 0 C-4.3333581 -1.33332095 -2.83319697 -0.67102033 0 0 Z " fill="#B0382E" transform="translate(36,7)"/>
<path d="M0 0 C0.66 0 1.32 0 2 0 C3.46726798 3.81489674 2.43336419 6.29011622 1 10 C0.34 10 -0.32 10 -1 10 C-1.33 9.01 -1.66 8.02 -2 7 C-2.99 6.67 -3.98 6.34 -5 6 C-4.34 5.67 -3.68 5.34 -3 5 C-2.67 4.34 -2.34 3.68 -2 3 C-1.67 3.33 -1.34 3.66 -1 4 C-0.67 2.68 -0.34 1.36 0 0 Z " fill="#EAE4C8" transform="translate(155,31)"/>
<path d="M0 0 C0.3125 2.3125 0.3125 2.3125 0 5 C-2.86103423 7.24243223 -4.34076304 8 -8 8 C-8 7.34 -8 6.68 -8 6 C-7 5 -6 4 -5 3 C-5 2.34 -5 1.68 -5 1 C-2 0 -2 0 0 0 Z " fill="#D08F1D" transform="translate(15,43)"/>
<path d="M0 0 C1.32 0.66 2.64 1.32 4 2 C3.67 4.31 3.34 6.62 3 9 C1.35 9 -0.3 9 -2 9 C-1.67 7.68 -1.34 6.36 -1 5 C-0.01 5 0.98 5 2 5 C1.34 3.35 0.68 1.7 0 0 Z " fill="#313560" transform="translate(37,36)"/>
<path d="M0 0 C6.875 1.875 6.875 1.875 8 3 C8.04063832 4.66617115 8.042721 6.33388095 8 8 C7.01 8.33 6.02 8.66 5 9 C5 8.01 5 7.02 5 6 C4.01 5.67 3.02 5.34 2 5 C2.66 4.67 3.32 4.34 4 4 C1.525 3.01 1.525 3.01 -1 2 C-0.67 1.34 -0.34 0.68 0 0 Z " fill="#1D2751" transform="translate(31,1)"/>
<path d="M0 0 C2.91517292 1.07401108 4.77810176 1.77810176 7 4 C6.625 6.625 6.625 6.625 6 9 C4.68 9.33 3.36 9.66 2 10 C2.04125 9.0925 2.0825 8.185 2.125 7.25 C2.00468444 4.1217954 1.6085292 2.61385994 0 0 Z " fill="#F3ECD5" transform="translate(67,29)"/>
<path d="M0 0 C2.91517292 1.07401108 4.77810176 1.77810176 7 4 C7 5.32 7 6.64 7 8 C4.13792848 6.71700242 1.9754912 5.469364 0 3 C0 2.01 0 1.02 0 0 Z " fill="#1D7FB1" transform="translate(54,23)"/>
<path d="M0 0 C1.98 0.495 1.98 0.495 4 1 C4 1.66 4 2.32 4 3 C5.65 3.33 7.3 3.66 9 4 C9 4.66 9 5.32 9 6 C2.47692308 5.38461538 2.47692308 5.38461538 0.0625 3.4375 C-0.288125 2.963125 -0.63875 2.48875 -1 2 C-0.67 1.34 -0.34 0.68 0 0 Z " fill="#D3711F" transform="translate(42,20)"/>
<path d="M0 0 C1.32 0.33 2.64 0.66 4 1 C4 2.32 4 3.64 4 5 C5.65 4.67 7.3 4.34 9 4 C8.34 5.32 7.68 6.64 7 8 C6.01 8 5.02 8 4 8 C0 1.125 0 1.125 0 0 Z " fill="#A83627" transform="translate(23,27)"/>
<path d="M0 0 C3.63 0 7.26 0 11 0 C11 0.99 11 1.98 11 3 C7.37 3 3.74 3 0 3 C0 2.01 0 1.02 0 0 Z " fill="#276866" transform="translate(27,23)"/>
<path d="M0 0 C0.042721 1.66611905 0.04063832 3.33382885 0 5 C-1 6 -1 6 -3.5625 6.0625 C-4.7690625 6.0315625 -4.7690625 6.0315625 -6 6 C-5.6875 4.125 -5.6875 4.125 -5 2 C-2 0 -2 0 0 0 Z " fill="#1A7C9B" transform="translate(39,9)"/>
<path d="M0 0 C0.99 0.66 1.98 1.32 3 2 C3 2.99 3 3.98 3 5 C1.35 4.67 -0.3 4.34 -2 4 C-2.33 4.99 -2.66 5.98 -3 7 C-3.33 6.01 -3.66 5.02 -4 4 C-2.68 2.68 -1.36 1.36 0 0 Z " fill="#C1562A" transform="translate(22,40)"/>
<path d="M0 0 C0.66 1.32 1.32 2.64 2 4 C0.1875 6 0.1875 6 -2 8 C-2.99 8 -3.98 8 -5 8 C-3.375 2.25 -3.375 2.25 0 0 Z " fill="#DA9627" transform="translate(31,33)"/>
<path d="M0 0 C0.66 0.66 1.32 1.32 2 2 C-1.465 4.97 -1.465 4.97 -5 8 C-5.3125 5.6875 -5.3125 5.6875 -5 3 C-2.5 1.1875 -2.5 1.1875 0 0 Z " fill="#1785AD" transform="translate(9,23)"/>
<path d="M0 0 C1.65 0 3.3 0 5 0 C5.33 1.32 5.66 2.64 6 4 C3.69 4 1.38 4 -1 4 C-0.67 2.68 -0.34 1.36 0 0 Z " fill="#D78F2C" transform="translate(25,19)"/>
<path d="M0 0 C1.65 0.33 3.3 0.66 5 1 C4.01 1.495 4.01 1.495 3 2 C3.33 3.65 3.66 5.3 4 7 C2.0625 6.6875 2.0625 6.6875 0 6 C-1 3 -1 3 0 0 Z " fill="#D38C23" transform="translate(50,43)"/>
<path d="M0 0 C2.31 0.33 4.62 0.66 7 1 C7 1.99 7 2.98 7 4 C4.36 4 1.72 4 -1 4 C-0.67 2.68 -0.34 1.36 0 0 Z " fill="#206074" transform="translate(51,32)"/>
<path d="M0 0 C0.99 0.33 1.98 0.66 3 1 C2.34 2.98 1.68 4.96 1 7 C-0.32 6.34 -1.64 5.68 -3 5 C-2.01 3.35 -1.02 1.7 0 0 Z " fill="#2189A3" transform="translate(44,8)"/>
<path d="M0 0 C1.32 0.33 2.64 0.66 4 1 C4.33 2.65 4.66 4.3 5 6 C4.01 6.33 3.02 6.66 2 7 C0.5393715 4.35261084 0 3.10551666 0 0 Z " fill="#1F7F9C" transform="translate(18,8)"/>
<path d="M0 0 C0.99 0.33 1.98 0.66 3 1 C3 1.66 3 2.32 3 3 C4.32 2.34 5.64 1.68 7 1 C7 2.32 7 3.64 7 5 C5.02 5 3.04 5 1 5 C1 4.34 1 3.68 1 3 C0.34 2.34 -0.32 1.68 -1 1 C-0.67 0.67 -0.34 0.34 0 0 Z " fill="#D1731D" transform="translate(28,58)"/>
<path d="M0 0 C1.5 1.375 1.5 1.375 3 3 C3 3.66 3 4.32 3 5 C0.36 4.67 -2.28 4.34 -5 4 C-5 3.34 -5 2.68 -5 2 C-3.35 1.34 -1.7 0.68 0 0 Z " fill="#23607D" transform="translate(12,31)"/>
<path d="M0 0 C2.475 0.495 2.475 0.495 5 1 C4.67 2.65 4.34 4.3 4 6 C2 4.6875 2 4.6875 0 3 C0 2.01 0 1.02 0 0 Z " fill="#322C56" transform="translate(47,26)"/>
<path d="M0 0 C-0.8125 1.9375 -0.8125 1.9375 -2 4 C-2.99 4.33 -3.98 4.66 -5 5 C-5.99 3.68 -6.98 2.36 -8 1 C-5.07175348 0.02391783 -3.04386724 -0.08226668 0 0 Z " fill="#CB9036" transform="translate(35,25)"/>
<path d="M0 0 C0.99 0 1.98 0 3 0 C3 0.66 3 1.32 3 2 C3.66 2 4.32 2 5 2 C5 3.65 5 5.3 5 7 C4.34 7 3.68 7 3 7 C3 5.68 3 4.36 3 3 C1.68 3 0.36 3 -1 3 C-0.67 2.01 -0.34 1.02 0 0 Z " fill="#D66F1D" transform="translate(31,50)"/>
<path d="M0 0 C1.32 0 2.64 0 4 0 C3.67 1.32 3.34 2.64 3 4 C1.68 4.33 0.36 4.66 -1 5 C-1.33 4.34 -1.66 3.68 -2 3 C-1.34 2.01 -0.68 1.02 0 0 Z " fill="#2B2D5A" transform="translate(14,26)"/>
<path d="M0 0 C0.66 0 1.32 0 2 0 C2 2.31 2 4.62 2 7 C1.01 7 0.02 7 -1 7 C-1.04254356 5.00045254 -1.04080783 2.99958364 -1 1 C-0.67 0.67 -0.34 0.34 0 0 Z " fill="#922C25" transform="translate(16,53)"/>
<path d="M0 0 C1.25541557 3.76624671 0.37061958 5.37188934 -1 9 C-2.32 8.34 -3.64 7.68 -5 7 C-4.01 6.34 -3.02 5.68 -2 5 C-2 4.01 -2 3.02 -2 2 C-1.34 2 -0.68 2 0 2 C0 1.34 0 0.68 0 0 Z " fill="#D1902A" transform="translate(63,39)"/>
<path d="M0 0 C0.99 0 1.98 0 3 0 C3.125 5.75 3.125 5.75 2 8 C1.01 7.67 0.02 7.34 -1 7 C-0.67 4.69 -0.34 2.38 0 0 Z " fill="#266064" transform="translate(16,38)"/>
<path d="M0 0 C0.99 0 1.98 0 3 0 C3.33 0.99 3.66 1.98 4 3 C2.35 4.32 0.7 5.64 -1 7 C-1.625 4.625 -1.625 4.625 -2 2 C-1.34 1.34 -0.68 0.68 0 0 Z " fill="#20295B" transform="translate(24,33)"/>
<path d="M0 0 C0.99 0.33 1.98 0.66 3 1 C3 2.98 3 4.96 3 7 C2.01 7 1.02 7 0 7 C0 4.69 0 2.38 0 0 Z " fill="#852824" transform="translate(47,53)"/>
<path d="M0 0 C0.33 0 0.66 0 1 0 C2.19287411 3.87684087 3 6.91621923 3 11 C1.68 10.34 0.36 9.68 -1 9 C-0.34 8.67 0.32 8.34 1 8 C0.67 7.34 0.34 6.68 0 6 C-0.039992 4.00039988 -0.04346799 1.99952758 0 0 Z " fill="#90362D" transform="translate(17,6)"/>
<path d="M0 0 C0.99 0 1.98 0 3 0 C2.67 1.65 2.34 3.3 2 5 C1.01 5 0.02 5 -1 5 C-1.33 4.34 -1.66 3.68 -2 3 C-1.34 2.01 -0.68 1.02 0 0 Z " fill="#1383A6" transform="translate(55,5)"/>
<path d="M0 0 C-0.66 0 -1.32 0 -2 0 C-2 1.98 -2 3.96 -2 6 C-4.2477975 3.94766315 -5.0022242 2.99332739 -6 0 C-3.50907189 -1.24546405 -2.58919267 -0.7767578 0 0 Z " fill="#17244E" transform="translate(30,4)"/>
<path d="M0 0 C2.5 1.25 2.5 1.25 5 3 C5 4.32 5 5.64 5 7 C4.01 7 3.02 7 2 7 C1.34 4.69 0.68 2.38 0 0 Z " fill="#DA7B1C" transform="translate(25,25)"/>
<path d="M0 0 C0.99 0 1.98 0 3 0 C2.125 4.75 2.125 4.75 1 7 C0.34 7 -0.32 7 -1 7 C-1 5.68 -1 4.36 -1 3 C-0.34 3 0.32 3 1 3 C0.67 2.01 0.34 1.02 0 0 Z " fill="#CC6D2C" transform="translate(48,8)"/>
<path d="M0 0 C0 0.99 0 1.98 0 3 C-2.64 3 -5.28 3 -8 3 C-8 2.34 -8 1.68 -8 1 C-5.07175348 0.02391783 -3.04386724 -0.08226668 0 0 Z " fill="#58834E" transform="translate(53,51)"/>
<path d="M0 0 C0.66 0 1.32 0 2 0 C2 2.64 2 5.28 2 8 C1.01 7.67 0.02 7.34 -1 7 C-0.67 4.69 -0.34 2.38 0 0 Z " fill="#467E44" transform="translate(22,51)"/>
<path d="M0 0 C1.98 0 3.96 0 6 0 C6 0.66 6 1.32 6 2 C4.125 3.0625 4.125 3.0625 2 4 C1.34 3.67 0.68 3.34 0 3 C0 2.01 0 1.02 0 0 Z " fill="#E08E14" transform="translate(57,39)"/>
<path d="M0 0 C0.66 0 1.32 0 2 0 C3.35439668 2.70879335 3.06501451 5.00933268 3 8 C0.9375 5.6875 0.9375 5.6875 -1 3 C-0.67 2.01 -0.34 1.02 0 0 Z " fill="#A13A31" transform="translate(39,33)"/>
<path d="M0 0 C1.32 0.33 2.64 0.66 4 1 C3.67 2.32 3.34 3.64 3 5 C2.01 4.67 1.02 4.34 0 4 C0 2.68 0 1.36 0 0 Z " fill="#D07423" transform="translate(30,8)"/>
<path d="M0 0 C0.99 0 1.98 0 3 0 C3.33 0.99 3.66 1.98 4 3 C3.01 3.33 2.02 3.66 1 4 C0.67 4.66 0.34 5.32 0 6 C-0.66 5.67 -1.32 5.34 -2 5 C-1.34 3.35 -0.68 1.7 0 0 Z " fill="#1A6782" transform="translate(7,5)"/>
<path d="M0 0 C0.99 0 1.98 0 3 0 C3 0.99 3 1.98 3 3 C2.01 3 1.02 3 0 3 C0 2.01 0 1.02 0 0 Z " fill="#EDE9D1" transform="translate(142,25)"/>
<path d="M0 0 C0.66 0 1.32 0 2 0 C1.67 1.32 1.34 2.64 1 4 C0.34 3.67 -0.32 3.34 -1 3 C-0.67 2.01 -0.34 1.02 0 0 Z " fill="#ECE8CF" transform="translate(85,24)"/>
<path d="M0 0 C0.66 0 1.32 0 2 0 C2.33 0.99 2.66 1.98 3 3 C2.01 2.67 1.02 2.34 0 2 C0 1.34 0 0.68 0 0 Z " fill="#F5F2CC" transform="translate(64,26)"/>
<path d="" fill="#ECE8D1" transform="translate(0,0)"/>
<path d="" fill="#E4DEC4" transform="translate(0,0)"/>
<path d="" fill="#FBFAE6" transform="translate(0,0)"/>
</svg>
