<svg width="21" height="21" viewBox="0 0 21 21" fill="none" xmlns="http://www.w3.org/2000/svg">
<g clip-path="url(#clip0_79_29)">
<path d="M6.67103 18.3452C7.13157 18.3452 7.50491 17.9719 7.50491 17.5114C7.50491 17.0508 7.13157 16.6775 6.67103 16.6775C6.2105 16.6775 5.83716 17.0508 5.83716 17.5114C5.83716 17.9719 6.2105 18.3452 6.67103 18.3452Z" stroke="#0A0A0A" stroke-width="1.66775" stroke-linecap="round" stroke-linejoin="round"/>
<path d="M15.8436 18.3452C16.3042 18.3452 16.6775 17.9719 16.6775 17.5114C16.6775 17.0508 16.3042 16.6775 15.8436 16.6775C15.3831 16.6775 15.0098 17.0508 15.0098 17.5114C15.0098 17.9719 15.3831 18.3452 15.8436 18.3452Z" stroke="#0A0A0A" stroke-width="1.66775" stroke-linecap="round" stroke-linejoin="round"/>
<path d="M1.70947 1.70947H3.37722L5.59533 12.0662C5.6767 12.4455 5.88775 12.7846 6.19215 13.0251C6.49655 13.2655 6.87526 13.3924 7.26309 13.3837H15.4184C15.798 13.3831 16.166 13.2531 16.4616 13.015C16.7572 12.777 16.9628 12.4452 17.0445 12.0746L18.4203 5.87885H4.26947" stroke="#0A0A0A" stroke-width="1.66775" stroke-linecap="round" stroke-linejoin="round"/>
</g>
<defs>
<clipPath id="clip0_79_29">
<rect width="20.013" height="20.013" fill="white"/>
</clipPath>
</defs>
</svg>
