<svg width="64" height="64" viewBox="0 0 64 64" fill="none" xmlns="http://www.w3.org/2000/svg">
<path d="M0 32C0 14.3269 14.3269 0 32 0C49.6731 0 64 14.3269 64 32C64 49.6731 49.6731 64 32 64C14.3269 64 0 49.6731 0 32Z" fill="#F3E8FF"/>
<path d="M42.6666 29.3334C42.6666 35.9907 35.2813 42.9241 32.8013 45.0654C32.5702 45.2391 32.289 45.3331 31.9999 45.3331C31.7109 45.3331 31.4296 45.2391 31.1986 45.0654C28.7186 42.9241 21.3333 35.9907 21.3333 29.3334C21.3333 26.5044 22.4571 23.7913 24.4574 21.7909C26.4578 19.7906 29.1709 18.6667 31.9999 18.6667C34.8289 18.6667 37.542 19.7906 39.5424 21.7909C41.5428 23.7913 42.6666 26.5044 42.6666 29.3334Z" stroke="#9810FA" stroke-width="2.66667" stroke-linecap="round" stroke-linejoin="round"/>
<path d="M32 33.3333C34.2091 33.3333 36 31.5424 36 29.3333C36 27.1241 34.2091 25.3333 32 25.3333C29.7909 25.3333 28 27.1241 28 29.3333C28 31.5424 29.7909 33.3333 32 33.3333Z" stroke="#9810FA" stroke-width="2.66667" stroke-linecap="round" stroke-linejoin="round"/>
</svg>
